<svg width="332" height="157" viewBox="0 0 332 157" fill="none" xmlns="http://www.w3.org/2000/svg">
<path d="M281.668 21.9114L249.232 0.231445L223.038 28.0151L192.229 12.0971L161.235 40.756L133.783 64.9431L120.605 55.5937L104.854 60.2388V156.736H331.881V141.183L281.668 21.9114ZM143.521 83.2908L126.521 71.3978L130.13 72.6696L115.442 61.8661L134.472 73.4355L153.236 82.8213L141.578 78.8554L138.912 76.7586L143.521 83.2908ZM217.35 41.3531L200.35 29.4602L203.954 30.732L189.314 19.9285L208.345 31.4978L227.108 40.8791L215.451 36.9178L212.789 34.8209L217.35 41.3531ZM264.804 32.3867L251.908 19.6686L235.783 28.4482L251.933 7.47936L277.778 30.0801L254.152 18.7843L264.804 32.3867Z" fill="white"/>
<path d="M0.119141 156.768H23.0691V86.8145L0.119141 94.2766V156.768Z" fill="white"/>
<path d="M35.0469 70.3811L57.9969 62.9189V0.427246H35.0469V70.3811Z" fill="white"/>
<path d="M35.0469 156.768H57.9969V75.2632L35.0469 82.8986V156.768Z" fill="white"/>
<path d="M0.119141 81.335L23.0691 73.7589V0.427246H0.119141V81.335Z" fill="white"/>
<path d="M69.9746 156.768H92.9246V63.9038L69.9746 71.366V156.768Z" fill="white"/>
</svg>
